.
 
http://www.scenetime.com    -   SceneTime [ We been having it ] !!!


How come you press harder on a remote control when you know the battery is dead? so you better seed to get speed ;)

        Seed back for speed


...................................NFO:.................................................[IMG]http://lookpic.com/c1/i2/1938/jABP33M.png[/IMG]
-------------------------------------------------------------------------------------------
[IMG]http://i184.photobucket.com/albums/x292/miff2001/INFO.png[/IMG]
-------------------------------------------------------------------------------------------
General
Format                           : Matroska
File size                        : 1.02 GiB
Duration                         : 2h 6mn
Overall bit rate                 : 1 154 Kbps
Movie name                       : Avidemux
Writing application              : Lavf52.108.0
Writing library                  : Lavf52.108.0
AUTHOR                           : Avidemux

Video
ID                               : 1
Format                           : MPEG-4 Visual
Format profile                   : Advanced Simple@L5
Duration                         : 2h 6mn
Bit rate                         : 1 003 Kbps
Width                            : 720 pixels
Height                           : 304 pixels
Display aspect ratio             : 2.35:1
Frame rate                       : 25.000 fps
Color space                      : YUV
Chroma subsampling               : 4:2:0
Bit depth                        : 8 bits
Scan type                        : Progressive
Compression mode                 : Lossy
Bits/(Pixel*Frame)               : 0.183
Stream size                      : 906 MiB (87%)
Writing library                  : XviD 63
Language                         : English

Audio
ID                               : 2
Format                           : AC-3
Format/Info                      : Audio Coding 3
Mode extension                   : CM (complete main)
Codec ID                         : A_AC3
Duration                         : 2h 6mn
Bit rate mode                    : Constant
Bit rate                         : 128 Kbps
Channel(s)                       : 2 channels
Channel positions                : Front: L R
Sampling rate                    : 44.1 KHz
Bit depth                        : 16 bits
Compression mode                 : Lossy
Delay relative to video          : -40ms
Stream size                      : 116 MiB (11%)
Language                         : English 
http://www.imdb.com/title/tt1270798/

 Release Notes
 -------------
 Audio Source....: IMAGiNE    [Thanks]
 Sub Source......: IMAGiNE    [Thanks]
 Video Source....: ELEKTRI4KA [Thanks]
 
 we played about with the rgb-brightness-contrast and got rid of the yellow haze from it
 and finshed it off with a sharpen filter subs were hard coded in white 
 and are in sync. enjoy  
 
 

[IMG]http://i184.photobucket.com/albums/x292/miff2001/PLOT.png[/IMG]
In 1962, Charles Xavier starts up a school and later a team, 
for humans with superhuman abilities. Among them is Erik Lensherr, 
his best friend... and future archenemy. 

[IMG]http://lookpic.com/c1/i2/2700/N3NOdt8q.png[/IMG]
[IMG]http://lookpic.com/c1/i2/2916/tZtD1eOD.jpeg[/IMG]

[IMG]http://lookpic.com/c1/i2/3836/e0qUCjxg.png[/IMG]

ALWAYS LOOKiNG for SCREENERS,CAM,SiLVERS,LiNE,PRERETAiL BD/DVD. ANY REGiON
If you'd like to help, feel free to contact us at: pr3dator-rg@hushmail.me 


[IMG]http://lookpic.com/c1/i2/3765/t8sIOz7z.png[/IMG]  [IMG]http://lookpic.com/c1/i2/2254/OukJyZKz.png[/IMG]
[IMG]http://i184.photobucket.com/albums/x292/miff2001/predrg.png[/IMG]